<svg width="44" height="44" viewBox="0 0 44 44" fill="none" xmlns="http://www.w3.org/2000/svg">
<path d="M15.1561 26.9133C14.8188 26.9133 14.5915 26.9463 14.4741 26.9793V29.139C14.6135 29.172 14.7876 29.1812 15.0278 29.1812C15.906 29.1812 16.4468 28.7375 16.4468 27.9877C16.4468 27.3167 15.9811 26.9133 15.1561 26.9133ZM21.549 26.9353C21.1823 26.9353 20.944 26.9683 20.8028 27.0013V31.7863C20.944 31.8193 21.1713 31.8193 21.3766 31.8193C22.8745 31.8303 23.8498 31.0053 23.8498 29.26C23.8608 27.7383 22.9716 26.9353 21.549 26.9353Z" fill="white"/>
<path d="M25.6668 3.66675H11.0002C10.0277 3.66675 9.09507 4.05306 8.40744 4.74069C7.7198 5.42832 7.3335 6.36095 7.3335 7.33341V36.6667C7.3335 37.6392 7.7198 38.5718 8.40744 39.2595C9.09507 39.9471 10.0277 40.3334 11.0002 40.3334H33.0002C33.9726 40.3334 34.9053 39.9471 35.5929 39.2595C36.2805 38.5718 36.6668 37.6392 36.6668 36.6667V14.6667L25.6668 3.66675ZM17.4132 29.6817C16.8467 30.2134 16.0107 30.4517 15.0372 30.4517C14.8484 30.4553 14.6596 30.4443 14.4725 30.4187V33.0331H12.8335V25.8171C13.5732 25.7071 14.3206 25.6568 15.0683 25.6667C16.0895 25.6667 16.8155 25.8611 17.305 26.2516C17.7707 26.6219 18.086 27.2287 18.086 27.9437C18.0842 28.6624 17.8458 29.2692 17.4132 29.6817ZM24.3927 32.1659C23.6227 32.8057 22.4512 33.1101 21.0193 33.1101C20.1613 33.1101 19.5545 33.0551 19.142 33.0001V25.8189C19.882 25.7113 20.6291 25.6604 21.3768 25.6667C22.7647 25.6667 23.6667 25.9161 24.3707 26.4477C25.1315 27.0124 25.6082 27.9126 25.6082 29.2051C25.6082 30.6039 25.0967 31.5701 24.3927 32.1659ZM31.1668 27.0784H28.3582V28.7486H30.9835V30.0942H28.3582V33.0349H26.6972V25.7217H31.1668V27.0784ZM25.6668 16.5001H23.8335V7.33341L33.0002 16.5001H25.6668Z" fill="white"/>
</svg>
