<svg width="40" height="32" viewBox="0 0 40 32" fill="none" xmlns="http://www.w3.org/2000/svg">
<g clip-path="url(#clip0_66_59)">
<path d="M40 15.0004V30.0004C40 31.1047 39.1044 32.0004 38 32.0004H2C0.895625 32.0004 0 31.1047 0 30.0004V9.00035C0 7.34348 1.34312 6.00035 3 6.00035H4V1.50098C4 0.672852 4.67188 0.0572266 5.5 0.0572266C6.32812 0.0572266 7 0.672227 7 1.50098V6.00098H11V1.50098C11 0.672852 11.6719 0.0572266 12.5 0.0572266C13.3281 0.0572266 14 0.672227 14 1.50098V5.94473H18V3.00098C18 1.3441 19.3431 0.000976562 21 0.000976562L27 0.00128281C28.6569 0.00128281 30 1.34441 30 3.00128V11.945H37C38.6562 12.0004 40 13.3441 40 15.0004ZM8 10.7504C8 10.3363 7.66406 10.0004 7.25 10.0004H4.75C4.33594 10.0004 4 10.3363 4 10.7504V13.2504C4 13.6644 4.33594 14.0004 4.75 14.0004H7.25C7.66406 14.0004 8 13.6644 8 13.2504V10.7504ZM8 16.7504C8 16.3363 7.66406 16.0004 7.25 16.0004H4.75C4.33594 16.0004 4 16.3363 4 16.7504V19.2504C4 19.6644 4.33594 20.0004 4.75 20.0004H7.25C7.66406 20.0004 8 19.6644 8 19.2504V16.7504ZM8 22.7504C8 22.3363 7.66406 22.0004 7.25 22.0004H4.75C4.33594 22.0004 4 22.3363 4 22.7504V25.2504C4 25.6644 4.33594 26.0004 4.75 26.0004H7.25C7.66406 26.0004 8 25.6644 8 25.2504V22.7504ZM16 10.7504C16 10.3363 15.6641 10.0004 15.25 10.0004H12.75C12.3359 10.0004 12 10.3363 12 10.7504V13.2504C12 13.6644 12.3359 14.0004 12.75 14.0004H15.25C15.6641 14.0004 16 13.6644 16 13.2504V10.7504ZM16 16.7504C16 16.3363 15.6641 16.0004 15.25 16.0004H12.75C12.3375 16.0004 12 16.3379 12 16.7504V19.2504C12 19.6644 12.3359 20.0004 12.75 20.0004H15.25C15.6641 20.0004 16 19.6644 16 19.2504V16.7504ZM16 22.7504C16 22.3363 15.6641 22.0004 15.25 22.0004H12.75C12.3359 22.0004 12 22.3366 12 22.7504V25.2504C12 25.6644 12.3359 26.0004 12.75 26.0004H15.25C15.6641 26.0004 16 25.6644 16 25.2504V22.7504ZM26 4.75098C26 4.33691 25.6641 4.00098 25.25 4.00098H22.75C22.3359 4.00098 22 4.33691 22 4.75098V7.25098C22 7.66504 22.3359 8.00098 22.75 8.00098H25.25C25.6641 8.00098 26 7.66504 26 7.25098V4.75098ZM26 10.7504C26 10.3363 25.6641 10.0004 25.25 10.0004H22.75C22.3359 10.0004 22 10.3366 22 10.7504V13.2504C22 13.6644 22.3359 14.0004 22.75 14.0004H25.25C25.6641 14.0004 26 13.6644 26 13.2504V10.7504ZM26 16.7504C26 16.3363 25.6641 16.0004 25.25 16.0004H22.75C22.3359 16.0004 22 16.3366 22 16.7504V19.2504C22 19.6644 22.3359 20.0004 22.75 20.0004H25.25C25.6641 20.0004 26 19.6644 26 19.2504V16.7504ZM36 16.7504C36 16.3363 35.6641 16.0004 35.25 16.0004H32.75C32.3359 16.0004 32 16.3363 32 16.7504V19.2504C32 19.6644 32.3359 20.0004 32.75 20.0004H35.25C35.6641 20.0004 36 19.6644 36 19.2504V16.7504ZM36 22.7504C36 22.3363 35.6641 22.0004 35.25 22.0004H32.75C32.3359 22.0004 32 22.3363 32 22.7504V25.2504C32 25.6644 32.3359 26.0004 32.75 26.0004H35.25C35.6641 26.0004 36 25.6644 36 25.2504V22.7504Z" fill="white"/>
</g>
<defs>
<clipPath id="clip0_66_59">
<rect width="40" height="32" fill="white"/>
</clipPath>
</defs>
</svg>
