<svg width="40" height="40" viewBox="0 0 40 40" fill="none" xmlns="http://www.w3.org/2000/svg">
<g clip-path="url(#clip0_58_90)">
<path d="M38.7444 35.789L33.3333 30.4112V9.72233L30.7777 5.02233C30.5892 4.664 30.3064 4.36398 29.9598 4.15468C29.6132 3.94538 29.216 3.83476 28.8111 3.83476C28.4062 3.83476 28.009 3.94538 27.6624 4.15468C27.3158 4.36398 27.0329 4.664 26.8444 5.02233L24.4444 9.73344V21.5668L4.12219 1.34455C3.96677 1.18785 3.76822 1.08099 3.55183 1.03758C3.33545 0.994165 3.11103 1.01618 2.90721 1.10081C2.70338 1.18544 2.52937 1.32885 2.40737 1.51276C2.28537 1.69667 2.2209 1.91275 2.22219 2.13344V11.1112H4.6333V12.889H2.22219V20.0001H4.6333V21.7779H2.22219V29.1668H4.6333V30.9446H2.22219V36.5779C2.22219 36.8726 2.33925 37.1552 2.54762 37.3636C2.756 37.5719 3.03861 37.689 3.3333 37.689H37.9555C38.1762 37.6903 38.3923 37.6258 38.5762 37.5038C38.7601 37.3818 38.9035 37.2078 38.9882 37.004C39.0728 36.8002 39.0948 36.5757 39.0514 36.3594C39.008 36.143 38.9011 35.9444 38.7444 35.789ZM11.1111 28.889V18.8223L21.1889 28.889H11.1111ZM31.1111 31.2334H26.6666V28.5334H31.1111V31.2334ZM31.1111 26.789H26.6666V10.2779L28.8222 6.089L31.1111 10.289V26.789Z" fill="white"/>
</g>
<defs>
<clipPath id="clip0_58_90">
<rect width="40" height="40" fill="white"/>
</clipPath>
</defs>
</svg>
