<svg width="40" height="40" viewBox="0 0 40 40" fill="none" xmlns="http://www.w3.org/2000/svg">
<path d="M20.8335 38.3333C20.1391 38.3333 19.5491 38.0971 19.0635 37.6249C18.5779 37.1527 18.3346 36.5694 18.3335 35.8749C18.3335 35.5416 18.3963 35.2221 18.5218 34.9166C18.6474 34.611 18.8346 34.3471 19.0835 34.1249L20.8335 32.4999L22.5835 34.1249C22.8335 34.3471 23.0213 34.611 23.1468 34.9166C23.2724 35.2221 23.3346 35.5416 23.3335 35.8749C23.3335 36.5694 23.0907 37.1527 22.6052 37.6249C22.1196 38.0971 21.5291 38.3333 20.8335 38.3333ZM15.0835 35.8333L13.3335 34.0833L18.2502 29.1666L20.0002 30.9166L15.0835 35.8333ZM25.8335 33.3333L23.3335 30.8333L25.8335 28.3333L28.3335 30.8333L25.8335 33.3333ZM10.8335 33.3333L8.3335 30.8333L10.8335 28.3333L13.3335 30.8333L10.8335 33.3333ZM12.5002 26.6666C9.97238 26.6666 7.81294 25.771 6.02183 23.9799C4.23072 22.1888 3.33461 20.0288 3.3335 17.4999C3.3335 15.1944 4.09738 13.1805 5.62516 11.4583C7.15294 9.73603 9.04183 8.72214 11.2918 8.41659C12.1807 6.83325 13.3963 5.58992 14.9385 4.68659C16.4807 3.78325 18.1679 3.33214 20.0002 3.33325C22.5002 3.33325 24.6741 4.13214 26.5218 5.72992C28.3696 7.3277 29.4874 9.32048 29.8752 11.7083C31.7918 11.8749 33.4029 12.6666 34.7085 14.0833C36.0141 15.4999 36.6668 17.1944 36.6668 19.1666C36.6668 21.2499 35.9379 23.021 34.4802 24.4799C33.0224 25.9388 31.2513 26.6677 29.1668 26.6666H12.5002Z" fill="white"/>
</svg>
