<svg width="40" height="40" viewBox="0 0 40 40" fill="none" xmlns="http://www.w3.org/2000/svg">
<path d="M20 2.5C17.4343 2.50018 14.9575 2.56964 13.0334 2.69536C11.1093 2.82108 9.86983 2.99444 9.54712 3.18298C8.98197 3.37527 8.46244 4.10991 8.08567 5.24953C7.70891 6.38916 7.5007 7.85573 7.5 9.375V10.9375H7.18094C7.14709 10.8641 7.1039 10.798 7.05307 10.7419C7.11971 10.6687 7.17314 10.5786 7.20978 10.4777C7.24643 10.3767 7.26547 10.2671 7.26562 10.1562V9.375C7.26561 9.16781 7.19975 8.9691 7.08255 8.8226C6.96534 8.67609 6.80638 8.59377 6.64062 8.59375H5.39062C5.22487 8.59377 5.06591 8.67609 4.9487 8.8226C4.83149 8.9691 4.76564 9.16781 4.76562 9.375V10.1562C4.76571 10.2672 4.78472 10.3769 4.82137 10.478C4.85802 10.5791 4.91147 10.6693 4.97818 10.7425C4.91154 10.8157 4.85811 10.9057 4.82147 11.0067C4.78482 11.1077 4.76578 11.2172 4.76562 11.3281V15.2344C4.76564 15.4416 4.83149 15.6403 4.9487 15.7868C5.06591 15.9333 5.22487 16.0156 5.39062 16.0156H6.64062C6.7502 16.0154 6.85781 15.9793 6.95267 15.9107C7.04753 15.8421 7.1263 15.7436 7.18109 15.625H7.5V22.6562C7.50032 22.7932 7.57267 22.9278 7.7098 23.0464C7.84692 23.1649 8.04399 23.2634 8.28125 23.3319V24.2442C7.94607 24.2875 7.64913 24.3852 7.43702 24.522C7.22492 24.6588 7.10967 24.8269 7.10938 25V32.8125C7.10967 33.3605 7.18201 33.8987 7.31913 34.3731C7.45626 34.8475 7.65334 35.2415 7.89062 35.5154V36.8579C7.89062 37.2125 8.1781 37.5 8.53271 37.5H11.1548C11.5094 37.5 11.7969 37.2125 11.7969 36.8579V35.9375H28.2031V36.8579C28.2031 37.2125 28.4906 37.5 28.8452 37.5H31.4673C31.8219 37.5 32.1094 37.2125 32.1094 36.8579V35.5144C32.3466 35.2405 32.5436 34.8467 32.6807 34.3725C32.8179 33.8983 32.8902 33.3603 32.8906 32.8125V25C32.8902 24.827 32.7749 24.6589 32.5628 24.5222C32.3507 24.3854 32.0538 24.2878 31.7188 24.2445V23.3318C31.956 23.2633 32.153 23.1648 32.2901 23.0463C32.4272 22.9277 32.4996 22.7932 32.5 22.6562V15.625H32.8189C32.8737 15.7436 32.9525 15.8421 33.0473 15.9107C33.1422 15.9793 33.2498 16.0154 33.3594 16.0156H34.6094C34.7751 16.0156 34.9341 15.9333 35.0513 15.7868C35.1685 15.6403 35.2344 15.4416 35.2344 15.2344V11.3281C35.2342 11.2172 35.2152 11.1077 35.1785 11.0067C35.1419 10.9057 35.0885 10.8157 35.0218 10.7425C35.0885 10.6693 35.142 10.5791 35.1786 10.478C35.2153 10.3769 35.2343 10.2672 35.2344 10.1562V9.375C35.2344 9.16781 35.1685 8.9691 35.0513 8.8226C34.9341 8.67609 34.7751 8.59377 34.6094 8.59375H33.3594C33.1936 8.59377 33.0347 8.67609 32.9175 8.8226C32.8002 8.9691 32.7344 9.16781 32.7344 9.375V10.1562C32.7345 10.2671 32.7536 10.3767 32.7902 10.4777C32.8269 10.5786 32.8803 10.6687 32.9469 10.7419C32.8961 10.798 32.8529 10.8641 32.8191 10.9375H32.5V9.375C32.4995 7.84795 32.2894 6.37419 31.9093 5.23198C31.5293 4.08977 31.0055 3.35813 30.437 3.1752C30.0913 2.98827 28.844 2.81693 26.9255 2.69282C25.0071 2.56871 22.5471 2.50022 20 2.5ZM9.28467 7.03125H10.5208H13.2141H26.7847H29.4792H30.7141C31.0873 7.03129 31.4083 7.29519 31.4806 7.66129C31.6377 8.45736 31.7178 9.31725 31.7188 10.1894V10.1903V15.625C31.7187 16.0565 31.369 16.4062 30.9375 16.4062H28.75H11.25H9.0625C8.63105 16.4062 8.28129 16.0565 8.28125 15.625V10.1903V10.1897C8.2818 9.3178 8.36143 8.45799 8.51807 7.66173C8.59014 7.2954 8.91132 7.03126 9.28467 7.03125ZM10.2344 24.2188H11.9084C12.1159 24.2187 12.2872 24.3808 12.2986 24.588L12.5775 29.6661C12.5897 29.8899 12.4116 30.0781 12.1875 30.0781H10.2344C10.0186 30.0781 9.84377 29.9032 9.84375 29.6875V24.6094C9.84377 24.3936 10.0186 24.2188 10.2344 24.2188ZM28.0916 24.2188H29.7656C29.9814 24.2188 30.1562 24.3936 30.1562 24.6094V29.6875C30.1562 29.9032 29.9814 30.0781 29.7656 30.0781H27.8125C27.5884 30.0781 27.4103 29.8899 27.4225 29.6661L27.7014 24.588C27.7128 24.3808 27.8841 24.2187 28.0916 24.2188ZM13.5547 25.1562H26.4453C26.4971 25.1563 26.5468 25.1768 26.5834 25.2135C26.62 25.2501 26.6406 25.2998 26.6406 25.3516V25.5859C26.6406 25.6377 26.62 25.6874 26.5834 25.724C26.5468 25.7607 26.4971 25.7812 26.4453 25.7812H13.5547C13.5029 25.7812 13.4532 25.7607 13.4166 25.724C13.38 25.6874 13.3594 25.6377 13.3594 25.5859V25.3516C13.3594 25.2998 13.38 25.2501 13.4166 25.2135C13.4532 25.1768 13.5029 25.1563 13.5547 25.1562ZM13.6328 26.5625H26.3672C26.419 26.5625 26.4687 26.5831 26.5053 26.6197C26.5419 26.6563 26.5625 26.706 26.5625 26.7578V26.9922C26.5625 27.044 26.5419 27.0937 26.5053 27.1303C26.4687 27.1669 26.419 27.1875 26.3672 27.1875H13.6328C13.581 27.1875 13.5313 27.1669 13.4947 27.1303C13.4581 27.0937 13.4375 27.044 13.4375 26.9922V26.7578C13.4375 26.706 13.4581 26.6563 13.4947 26.6197C13.5313 26.5831 13.581 26.5625 13.6328 26.5625ZM13.7109 27.9688H26.2891C26.3409 27.9688 26.3905 27.9893 26.4272 28.026C26.4638 28.0626 26.4844 28.1123 26.4844 28.1641V28.3984C26.4844 28.4502 26.4638 28.4999 26.4272 28.5365C26.3905 28.5732 26.3409 28.5937 26.2891 28.5938H13.7109C13.6591 28.5937 13.6095 28.5732 13.5728 28.5365C13.5362 28.4999 13.5156 28.4502 13.5156 28.3984V28.1641C13.5156 28.1123 13.5362 28.0626 13.5728 28.026C13.6095 27.9893 13.6591 27.9688 13.7109 27.9688ZM13.7891 29.375H26.2109C26.2627 29.375 26.3124 29.3956 26.349 29.4322C26.3857 29.4688 26.4062 29.5185 26.4062 29.5703V29.8047C26.4062 29.8565 26.3857 29.9062 26.349 29.9428C26.3124 29.9794 26.2627 30 26.2109 30H13.7891C13.7373 30 13.6876 29.9794 13.651 29.9428C13.6143 29.9062 13.5938 29.8565 13.5938 29.8047V29.5703C13.5938 29.5185 13.6143 29.4688 13.651 29.4322C13.6876 29.3956 13.7373 29.375 13.7891 29.375Z" fill="white"/>
</svg>
