<svg width="40" height="40" viewBox="0 0 40 40" fill="none" xmlns="http://www.w3.org/2000/svg">
<path d="M36.1681 21.0636L20.123 5.04315C19.4622 4.41506 18.6842 3.92313 17.8334 3.5954C17.0059 3.22746 16.1144 3.02522 15.2091 3.00009H5.87095C5.49415 2.99697 5.12071 3.07099 4.77359 3.21759C4.42647 3.36419 4.11303 3.58027 3.85254 3.85254C3.58027 4.11303 3.36419 4.42647 3.21759 4.77359C3.07099 5.12071 2.99697 5.49415 3.00009 5.87095V15.2056C3.02513 16.1109 3.22737 17.0024 3.5954 17.8299C3.91942 18.6763 4.41196 19.448 5.04315 20.0984L21.0882 36.1681C21.35 36.4372 21.6642 36.6498 22.0113 36.7928C22.3585 36.9358 22.7312 37.0061 23.1066 36.9994C23.4851 37.0022 23.8605 36.9302 24.2111 36.7875C24.5617 36.6449 24.8806 36.4344 25.1497 36.1681L36.1681 25.1285C36.4372 24.8668 36.6498 24.5526 36.7928 24.2054C36.9358 23.8583 37.0061 23.4855 36.9994 23.1101C37.0027 22.731 36.9309 22.355 36.7882 22.0038C36.6455 21.6526 36.4348 21.333 36.1681 21.0636ZM10.1825 13.0534C9.4214 13.0524 8.69173 12.7497 8.15354 12.2115C7.61535 11.6733 7.31259 10.9436 7.31166 10.1825C7.31259 9.4214 7.61535 8.69173 8.15354 8.15354C8.69173 7.61535 9.4214 7.31259 10.1825 7.31166C10.9436 7.31259 11.6733 7.61535 12.2115 8.15354C12.7497 8.69173 13.0524 9.4214 13.0534 10.1825C13.0524 10.9436 12.7497 11.6733 12.2115 12.2115C11.6733 12.7497 10.9436 13.0524 10.1825 13.0534ZM20.8522 25.1743C20.5465 25.4794 20.1322 25.6506 19.7003 25.6506C19.2685 25.6506 18.8542 25.4794 18.5485 25.1743L12.842 19.4679C12.6784 19.3195 12.5466 19.1394 12.4547 18.9386C12.3627 18.7378 12.3125 18.5203 12.3071 18.2995C12.3017 18.0787 12.3412 17.8591 12.4233 17.654C12.5053 17.4489 12.6281 17.2626 12.7843 17.1065C12.9405 16.9503 13.1268 16.8274 13.3319 16.7454C13.537 16.6634 13.7566 16.6239 13.9774 16.6293C14.1982 16.6346 14.4156 16.6848 14.6165 16.7768C14.8173 16.8687 14.9974 17.0005 15.1457 17.1641L20.8522 22.8706C21.0037 23.0218 21.1238 23.2013 21.2058 23.399C21.2878 23.5966 21.33 23.8085 21.33 24.0225C21.33 24.2365 21.2878 24.4483 21.2058 24.646C21.1238 24.8436 21.0037 25.0232 20.8522 25.1743ZM29.3062 24.3747C29.1551 24.5262 28.9755 24.6463 28.7779 24.7283C28.5802 24.8103 28.3684 24.8525 28.1544 24.8525C27.9404 24.8525 27.7285 24.8103 27.5309 24.7283C27.3332 24.6463 27.1537 24.5262 27.0025 24.3747L17.4917 14.8639C17.2104 14.5537 17.0592 14.1472 17.0695 13.7285C17.0797 13.3099 17.2505 12.9112 17.5467 12.6151C17.8428 12.319 18.2414 12.1482 18.6601 12.1379C19.0787 12.1277 19.4852 12.2789 19.7955 12.5602L29.3062 22.071C29.6097 22.3775 29.779 22.792 29.777 23.2233C29.775 23.6546 29.6019 24.0675 29.2957 24.3712L29.3062 24.3747Z" fill="white"/>
</svg>
