<svg width="40" height="40" viewBox="0 0 40 40" fill="none" xmlns="http://www.w3.org/2000/svg">
<path d="M19.9998 3.33325V14.1666C19.9999 14.7881 20.2314 15.3872 20.6492 15.8473C21.067 16.3073 21.6412 16.5953 22.2598 16.6549L22.4998 16.6666H33.3332V24.8199L29.3882 23.5033C28.8031 23.3083 28.1754 23.2794 27.5748 23.4199L27.2782 23.5033L22.2782 25.1699C21.6578 25.3771 21.1122 25.7623 20.7091 26.2773C20.3061 26.7924 20.0635 27.4146 20.0115 28.0666L19.9998 28.3333V31.1182C19.9974 32.9905 20.5865 34.8157 21.6832 36.3332L21.9365 36.6666H9.99984C9.15888 36.6669 8.34889 36.3492 7.73226 35.7774C7.11562 35.2056 6.73791 34.4218 6.67484 33.5833L6.6665 33.3333V6.66659C6.66624 5.82562 6.98385 5.01564 7.55567 4.39901C8.12748 3.78237 8.91125 3.40466 9.74984 3.34159L9.99984 3.33325H19.9998ZM28.3332 26.6666L33.3332 28.3333V31.1182C33.3333 32.4909 32.8272 33.8154 31.9118 34.8382C30.9963 35.861 29.7358 36.5102 28.3715 36.6616H28.2948C26.983 36.5147 25.7657 35.9077 24.8589 34.9484C23.9521 33.9891 23.4145 32.7396 23.3415 31.4216L23.3332 31.1182V28.3333L28.3332 26.6666ZM23.3332 3.40492C23.8721 3.51933 24.3743 3.76557 24.7948 4.12159L24.9998 4.30992L32.3565 11.6666C32.747 12.0568 33.0345 12.5378 33.1932 13.0666L33.2598 13.3333H23.3332V3.40492Z" fill="white"/>
</svg>
