<svg width="24" height="24" viewBox="0 0 24 24" fill="none" xmlns="http://www.w3.org/2000/svg">
<path fill-rule="evenodd" clip-rule="evenodd" d="M19.7771 4.43C20.0243 4.32599 20.2947 4.29012 20.5604 4.32612C20.8261 4.36211 21.0773 4.46867 21.2878 4.63468C21.4984 4.8007 21.6606 5.02011 21.7575 5.27008C21.8545 5.52005 21.8827 5.79144 21.8391 6.056L19.5711 19.813C19.3511 21.14 17.8951 21.901 16.6781 21.24C15.6601 20.687 14.1481 19.835 12.7881 18.946C12.1081 18.501 10.0251 17.076 10.2811 16.062C10.5011 15.195 14.0011 11.937 16.0011 10C16.7861 9.239 16.4281 8.8 15.5011 9.5C13.1991 11.238 9.50314 13.881 8.28114 14.625C7.20314 15.281 6.64114 15.393 5.96914 15.281C4.74314 15.077 3.60614 14.761 2.67814 14.376C1.42414 13.856 1.48514 12.132 2.67714 11.63L19.7771 4.43Z" fill="#3757A1"/>
</svg>
