<svg width="40" height="40" viewBox="0 0 40 40" fill="none" xmlns="http://www.w3.org/2000/svg">
<path d="M28.3335 5.56665C30.8473 7.01808 32.9384 9.10086 34.3999 11.6088C35.8613 14.1168 36.6424 16.9629 36.6659 19.8655C36.6893 22.7682 35.9543 25.6266 34.5335 28.1578C33.1128 30.6891 31.0556 32.8053 28.5656 34.2972C26.0756 35.789 23.2391 36.6047 20.337 36.6634C17.4349 36.7222 14.5677 36.0219 12.0194 34.6321C9.4711 33.2422 7.32995 31.2109 5.80794 28.7392C4.28593 26.2675 3.43584 23.4412 3.34183 20.54L3.3335 20L3.34183 19.46C3.43517 16.5816 4.27274 13.7766 5.7729 11.3183C7.27305 8.86002 9.38459 6.8324 11.9016 5.43312C14.4187 4.03384 17.2554 3.31064 20.1352 3.33405C23.0149 3.35745 25.8395 4.12665 28.3335 5.56665ZM20.0002 9.99998C19.5919 10 19.1979 10.1499 18.8929 10.4212C18.5878 10.6924 18.3929 11.0662 18.3452 11.4717L18.3335 11.6667V20L18.3485 20.2183C18.3865 20.5075 18.4997 20.7816 18.6768 21.0133L18.8218 21.18L23.8218 26.18L23.9785 26.3166C24.2708 26.5434 24.6302 26.6665 25.0002 26.6665C25.3701 26.6665 25.7295 26.5434 26.0218 26.3166L26.1785 26.1783L26.3168 26.0216C26.5436 25.7294 26.6667 25.3699 26.6667 25C26.6667 24.63 26.5436 24.2706 26.3168 23.9783L26.1785 23.8216L21.6668 19.3083V11.6667L21.6552 11.4717C21.6074 11.0662 21.4125 10.6924 21.1075 10.4212C20.8024 10.1499 20.4084 10 20.0002 9.99998Z" fill="white"/>
</svg>
